<svg width="544" height="68" viewBox="0 0 544 68" fill="none" xmlns="http://www.w3.org/2000/svg">
<g clip-path="url(#clip0_142_106)">
<g filter="url(#filter0_d_142_106)">
<rect x="88" y="6" width="214" height="55" rx="6" fill="white"/>
</g>
<path d="M109.176 26.4014C112.118 26.4238 114.207 29.1191 114.229 33.3643C114.207 37.6094 112.118 40.3047 109.176 40.3047C106.211 40.3047 104.145 37.6094 104.145 33.3643C104.145 29.1191 106.211 26.4238 109.176 26.4014ZM109.176 27.9736C107.199 27.9961 105.807 30.1074 105.807 33.3643C105.807 36.6211 107.199 38.7324 109.176 38.7324C111.175 38.7324 112.522 36.6211 112.522 33.3643C112.522 30.1074 111.175 27.9961 109.176 27.9736ZM119.283 24.8516V32.8252H122.63V34.3525H119.283V44.8193H117.531V24.8516H119.283ZM130.896 28.5576C130.896 31.2529 133.029 33.7012 136.017 34.667L135.118 36.0371C132.793 35.251 130.94 33.6001 130.042 31.4775C129.166 33.7573 127.291 35.5542 124.921 36.4189L124 35.0488C126.987 33.9932 129.121 31.3877 129.121 28.5576V27.7041H124.449V26.2666H135.5V27.7041H130.896V28.5576ZM140.194 24.8516V36.9355H138.442V24.8516H140.194ZM140.194 37.9912V44.8193H138.442V39.4512H126.763V37.9912H140.194ZM159.713 34.2178V35.6553H153.536V40.8213H161.869V42.3037H143.586V40.8213H151.807V35.6553H145.922V26.4912H159.511V27.9287H147.696V34.2178H159.713ZM175.705 26.7383V43H173.661V28.8496H173.571L169.618 31.4775V29.4336L173.661 26.7383H175.705ZM185.79 26.7383V43H183.746V28.8496H183.656L179.703 31.4775V29.4336L183.746 26.7383H185.79ZM195.74 43.2246C192.506 43.2246 190.192 41.4951 190.08 38.9121H192.124C192.236 40.4619 193.786 41.4277 195.718 41.4277C197.852 41.4277 199.424 40.2598 199.424 38.5752C199.424 36.8008 198.009 35.543 195.471 35.543H194.146V33.7686H195.471C197.447 33.7686 198.817 32.668 198.817 30.9834C198.817 29.3662 197.627 28.2656 195.785 28.2656C194.056 28.2656 192.461 29.2314 192.371 30.8262H190.417C190.529 28.2432 192.91 26.5137 195.808 26.5137C198.907 26.5137 200.794 28.5352 200.771 30.8711C200.794 32.7129 199.716 34.083 198.009 34.5547V34.667C200.12 35.0039 201.423 36.5088 201.4 38.5752C201.423 41.248 198.975 43.2246 195.74 43.2246ZM209.98 43.2246C207.15 43.1797 204.051 41.5176 204.051 35.498C204.051 29.748 206.409 26.5137 210.228 26.5137C213.08 26.5137 215.079 28.2656 215.506 30.8262H213.507C213.125 29.3887 212.047 28.3105 210.228 28.3105C207.555 28.3105 205.96 30.6016 205.96 34.5098H206.162C207.105 33.1621 208.588 32.3535 210.34 32.3535C213.237 32.3535 215.641 34.5996 215.641 37.7441C215.641 40.7988 213.395 43.2471 209.98 43.2246ZM209.98 41.4502C212.092 41.4502 213.664 39.7881 213.687 37.7666C213.664 35.7676 212.159 34.1279 210.025 34.1279C207.892 34.1279 206.252 35.8574 206.229 37.7891C206.229 39.6982 207.802 41.4502 209.98 41.4502ZM218.942 43L226.399 28.6475V28.5352H217.797V26.7383H228.488V28.625L221.054 43H218.942ZM236.237 43.2246C232.823 43.2246 230.442 41.3379 230.465 38.6875C230.442 36.5762 231.902 34.8467 233.767 34.5547V34.4648C232.149 34.083 231.094 32.6006 231.094 30.8262C231.094 28.333 233.272 26.5137 236.237 26.5137C239.202 26.5137 241.381 28.333 241.403 30.8262C241.381 32.6006 240.303 34.083 238.708 34.4648V34.5547C240.55 34.8467 242.01 36.5762 242.032 38.6875C242.01 41.3379 239.629 43.2246 236.237 43.2246ZM236.237 41.4502C238.573 41.4502 240.011 40.2822 240.011 38.5752C240.011 36.7783 238.416 35.4531 236.237 35.4531C234.059 35.4531 232.441 36.7783 232.486 38.5752C232.441 40.2822 233.901 41.4502 236.237 41.4502ZM236.237 33.7461C238.079 33.7461 239.427 32.623 239.427 30.9834C239.427 29.3662 238.146 28.2656 236.237 28.2656C234.306 28.2656 233.048 29.3662 233.048 30.9834C233.048 32.623 234.373 33.7461 236.237 33.7461ZM260.585 24.874V39.6533H258.811V31.9717H254.094V36.2393H245.042V26.1992H246.794V29.748H252.364V26.1992H254.094V30.4893H258.811V24.874H260.585ZM261.034 42.9102V44.3926H247.67V38.1934H249.444V42.9102H261.034ZM246.794 34.7793H252.364V31.1406H246.794V34.7793ZM281.249 24.8516V44.8193H279.564V34.4873H277.341V43.8086H275.679V25.2783H277.341V33.0273H279.564V24.8516H281.249ZM267.885 30.8711C267.862 32.522 267.975 35.7002 269.457 37.9014C270.861 35.8237 270.962 32.8252 270.984 30.8711V28.7373H269.749V27.2998H274.511V28.7373H272.534V30.8711C272.512 33.4092 273.006 37.0029 275.342 38.7998L274.309 40.0352C273.017 39.0132 272.242 37.3735 271.815 35.6104C271.434 37.4185 270.737 39.1479 269.412 40.2373C268.109 39.1143 267.413 37.3286 267.054 35.5205C266.616 37.3062 265.852 38.9795 264.561 40.0352L263.505 38.7998C265.841 36.9805 266.312 33.3193 266.312 30.8711V28.7373H264.224V27.2998H269.12V28.7373H267.885V30.8711Z" fill="black"/>
</g>
<defs>
<filter id="filter0_d_142_106" x="85" y="6" width="220" height="62" filterUnits="userSpaceOnUse" color-interpolation-filters="sRGB">
<feFlood flood-opacity="0" result="BackgroundImageFix"/>
<feColorMatrix in="SourceAlpha" type="matrix" values="0 0 0 0 0 0 0 0 0 0 0 0 0 0 0 0 0 0 127 0" result="hardAlpha"/>
<feOffset dy="4"/>
<feGaussianBlur stdDeviation="1.5"/>
<feComposite in2="hardAlpha" operator="out"/>
<feColorMatrix type="matrix" values="0 0 0 0 0 0 0 0 0 0 0 0 0 0 0 0 0 0 0.1 0"/>
<feBlend mode="normal" in2="BackgroundImageFix" result="effect1_dropShadow_142_106"/>
<feBlend mode="normal" in="SourceGraphic" in2="effect1_dropShadow_142_106" result="shape"/>
</filter>
<clipPath id="clip0_142_106">
<rect width="544" height="68" fill="white"/>
</clipPath>
</defs>
</svg>
