<svg width="544" height="70" viewBox="0 0 544 70" fill="none" xmlns="http://www.w3.org/2000/svg">
<g clip-path="url(#clip0_142_107)">
<path d="M352.613 48.3516C356.305 48.3711 358.961 50.168 358.961 52.9023C358.961 55.4902 356.656 57.209 353.355 57.4141V61.0664H360.602V62.3555H344.703V61.0664H351.852V57.4141C348.561 57.1992 346.266 55.4805 346.266 52.9023C346.266 50.168 348.922 48.3711 352.613 48.3516ZM352.613 49.6211C349.801 49.6211 347.75 50.9492 347.75 52.9023C347.75 54.9141 349.801 56.2031 352.613 56.2227C355.426 56.2031 357.477 54.9141 357.477 52.9023C357.477 50.9492 355.426 49.6211 352.613 49.6211ZM376.891 49.2109V50.4805H362.809V49.2109H369.137V47.1211H370.641V49.2109H376.891ZM377.887 58.4688V59.7383H370.641V64.6211H369.137V59.7383H361.988V58.4688H377.887ZM369.898 51.4766C373.434 51.4766 375.562 52.5117 375.562 54.3867C375.562 56.2227 373.434 57.2578 369.898 57.2773C366.344 57.2578 364.215 56.2227 364.234 54.3867C364.215 52.5117 366.344 51.4766 369.898 51.4766ZM369.898 52.6484C367.301 52.6484 365.797 53.293 365.816 54.3867C365.797 55.4609 367.301 56.0859 369.898 56.0859C372.457 56.0859 373.961 55.4609 373.98 54.3867C373.961 53.293 372.457 52.6484 369.898 52.6484ZM389.801 63.1953C386.988 63.1953 384.977 61.6914 384.879 59.4453H386.656C386.754 60.793 388.102 61.6328 389.781 61.6328C391.637 61.6328 393.004 60.6172 393.004 59.1523C393.004 57.6094 391.773 56.5156 389.566 56.5156H388.414V54.9727H389.566C391.285 54.9727 392.477 54.0156 392.477 52.5508C392.477 51.1445 391.441 50.1875 389.84 50.1875C388.336 50.1875 386.949 51.0273 386.871 52.4141H385.172C385.27 50.168 387.34 48.6641 389.859 48.6641C392.555 48.6641 394.195 50.4219 394.176 52.4531C394.195 54.0547 393.258 55.2461 391.773 55.6562V55.7539C393.609 56.0469 394.742 57.3555 394.723 59.1523C394.742 61.4766 392.613 63.1953 389.801 63.1953ZM398.473 61.125C397.789 61.125 397.203 60.5586 397.223 59.8555C397.203 59.1719 397.789 58.6055 398.473 58.6055C399.156 58.6055 399.723 59.1719 399.723 59.8555C399.723 60.5586 399.156 61.125 398.473 61.125ZM398.473 53.2734C397.789 53.2734 397.203 52.707 397.223 52.0039C397.203 51.3203 397.789 50.7539 398.473 50.7539C399.156 50.7539 399.723 51.3203 399.723 52.0039C399.723 52.707 399.156 53.2734 398.473 53.2734ZM406.969 63.1953C403.824 63.1953 402.027 60.5586 402.027 55.9297C402.027 51.3398 403.863 48.6641 406.969 48.6641C410.074 48.6641 411.91 51.3398 411.91 55.9297C411.91 60.5586 410.094 63.1953 406.969 63.1953ZM406.969 61.6328C409 61.6328 410.191 59.582 410.191 55.9297C410.191 52.2773 409 50.1875 406.969 50.1875C404.938 50.1875 403.727 52.2773 403.727 55.9297C403.727 59.582 404.918 61.6328 406.969 61.6328ZM418.98 63.1953C416.012 63.1953 413.941 61.5547 413.961 59.25C413.941 57.4141 415.211 55.9102 416.832 55.6562V55.5781C415.426 55.2461 414.508 53.957 414.508 52.4141C414.508 50.2461 416.402 48.6641 418.98 48.6641C421.559 48.6641 423.453 50.2461 423.473 52.4141C423.453 53.957 422.516 55.2461 421.129 55.5781V55.6562C422.73 55.9102 424 57.4141 424.02 59.25C424 61.5547 421.93 63.1953 418.98 63.1953ZM418.98 61.6523C421.012 61.6523 422.262 60.6367 422.262 59.1523C422.262 57.5898 420.875 56.4375 418.98 56.4375C417.086 56.4375 415.68 57.5898 415.719 59.1523C415.68 60.6367 416.949 61.6523 418.98 61.6523ZM418.98 54.9531C420.582 54.9531 421.754 53.9766 421.754 52.5508C421.754 51.1445 420.641 50.1875 418.98 50.1875C417.301 50.1875 416.207 51.1445 416.207 52.5508C416.207 53.9766 417.359 54.9531 418.98 54.9531Z" fill="black" fill-opacity="0.82"/>
<g filter="url(#filter0_d_142_107)">
<rect x="88" y="7" width="246" height="55" rx="6" fill="white"/>
</g>
<path d="M119.272 25.8516V45.8643H117.498V25.8516H119.272ZM108.648 27.4014C111.613 27.4238 113.747 30.1191 113.747 34.3643C113.747 38.6094 111.613 41.3047 108.648 41.3047C105.661 41.3047 103.55 38.6094 103.55 34.3643C103.55 30.1191 105.661 27.4238 108.648 27.4014ZM108.648 28.9736C106.649 28.9961 105.257 31.1074 105.257 34.3643C105.257 37.6211 106.649 39.7324 108.648 39.7324C110.647 39.7324 112.04 37.6211 112.04 34.3643C112.04 31.1074 110.647 28.9961 108.648 28.9736ZM145.013 25.8516V37.7559H143.238V32.5225H139.218V31.0625H143.238V25.8516H145.013ZM138.387 38.3848C142.542 38.3848 145.08 39.7324 145.08 42.0908C145.08 44.4492 142.542 45.7969 138.387 45.8193C134.231 45.7969 131.693 44.4492 131.693 42.0908C131.693 39.7324 134.231 38.3848 138.387 38.3848ZM138.387 39.7549C135.332 39.7549 133.423 40.6309 133.445 42.0908C133.423 43.5283 135.332 44.4043 138.387 44.4043C141.441 44.4043 143.328 43.5283 143.328 42.0908C143.328 40.6309 141.441 39.7549 138.387 39.7549ZM135.399 29.5127C135.399 32.1182 137.398 34.5889 140.318 35.5996L139.397 37.0146C137.151 36.2061 135.411 34.5327 134.568 32.4551C133.692 34.8022 131.839 36.6777 129.47 37.5762L128.549 36.1611C131.514 35.083 133.625 32.3877 133.625 29.5352V28.7939H129.11V27.3115H139.869V28.7939H135.399V29.5127ZM164.464 35.2178V36.6553H158.287V41.8213H166.62V43.3037H148.337V41.8213H156.558V36.6553H150.673V27.4912H164.262V28.9287H152.447V35.2178H164.464ZM184.027 25.8516V34.0947H187.06V35.5771H184.027V45.8193H182.253V25.8516H184.027ZM174.279 28.0303C174.257 32.792 173.179 37.4639 169.562 41.3047L168.147 40.2939C171.168 37.2056 172.381 33.4883 172.617 29.5127H168.776V28.0303H174.279ZM179.76 28.0303C179.737 32.7695 179.041 38.2725 175.312 42.6299L173.875 41.6416C176.997 38.1152 177.94 33.6792 178.098 29.5127H174.908V28.0303H179.76ZM195.235 31.9834C195.235 35.375 197.706 38.8115 200.648 40.0918L199.66 41.4844C197.324 40.4175 195.303 38.1152 194.382 35.3525C193.438 38.2837 191.428 40.833 189.148 41.9785L188.093 40.5859C190.945 39.2158 193.438 35.4424 193.461 31.9834V29.3779H188.744V27.918H199.997V29.3779H195.235V31.9834ZM204.557 25.8516V45.8193H202.782V25.8516H204.557ZM223.716 29.3105V30.748H213.698V29.3105H217.854V26.458H219.605V29.3105H223.716ZM218.707 32.0957C221.223 32.0957 223.02 33.9824 223.042 36.6328C223.02 39.3057 221.223 41.2148 218.707 41.2148C216.214 41.2148 214.417 39.3057 214.417 36.6328C214.417 33.9824 216.214 32.0957 218.707 32.0957ZM218.707 33.5781C217.135 33.6006 215.989 34.8809 215.989 36.6328C215.989 38.4072 217.135 39.6875 218.707 39.665C220.302 39.6875 221.47 38.4072 221.47 36.6328C221.47 34.8809 220.302 33.6006 218.707 33.5781ZM230.746 25.8516V45.8193H229.062V35.7344H226.411V44.8311H224.749V26.3457H226.411V34.2744H229.062V25.8516H230.746ZM238.967 27.4014C241.909 27.4238 243.998 30.1191 244.021 34.3643C243.998 38.6094 241.909 41.3047 238.967 41.3047C236.002 41.3047 233.936 38.6094 233.936 34.3643C233.936 30.1191 236.002 27.4238 238.967 27.4014ZM238.967 28.9736C236.99 28.9961 235.598 31.1074 235.598 34.3643C235.598 37.6211 236.99 39.7324 238.967 39.7324C240.966 39.7324 242.313 37.6211 242.313 34.3643C242.313 31.1074 240.966 28.9961 238.967 28.9736ZM252.309 30.8828V32.3877H249.074V36.835H252.309V38.3174H249.074V45.8193H247.322V25.8516H249.074V30.8828H252.309ZM274.882 25.874V32.4551H277.892V33.9375H274.882V40.833H273.13V25.874H274.882ZM271.221 28.3223V29.7598H259.316V28.3223H264.393V25.874H266.145V28.3223H271.221ZM265.269 30.8604C268.121 30.8604 270.053 32.3203 270.075 34.5889C270.053 36.835 268.121 38.2725 265.269 38.2725C262.394 38.2725 260.439 36.835 260.462 34.5889C260.439 32.3203 262.394 30.8604 265.269 30.8604ZM265.269 32.2529C263.382 32.2529 262.124 33.1738 262.146 34.5889C262.124 36.0039 263.382 36.9023 265.269 36.8799C267.133 36.9023 268.391 36.0039 268.413 34.5889C268.391 33.1738 267.133 32.2529 265.269 32.2529ZM275.803 43.9102V45.3926H262.394V39.6426H264.123V43.9102H275.803ZM294.603 25.8516V33.7578H297.949V35.2402H294.603V45.8643H292.851V25.8516H294.603ZM289.347 27.8057V29.2656H281.777V39.373C285.394 39.373 287.954 39.2046 290.919 38.6543L291.144 40.1816C288.021 40.7432 285.394 40.8555 281.598 40.8555H280.025V27.8057H289.347ZM315.491 25.8516V45.8193H313.739V25.8516H315.491ZM302.06 27.8281V39.1484C305.103 39.1372 308.259 38.8901 311.605 38.1826L311.853 39.6875C308.304 40.4287 305.137 40.6758 301.947 40.6758H300.33V27.8281H302.06Z" fill="black"/>
</g>
<defs>
<filter id="filter0_d_142_107" x="85" y="7" width="252" height="62" filterUnits="userSpaceOnUse" color-interpolation-filters="sRGB">
<feFlood flood-opacity="0" result="BackgroundImageFix"/>
<feColorMatrix in="SourceAlpha" type="matrix" values="0 0 0 0 0 0 0 0 0 0 0 0 0 0 0 0 0 0 127 0" result="hardAlpha"/>
<feOffset dy="4"/>
<feGaussianBlur stdDeviation="1.5"/>
<feComposite in2="hardAlpha" operator="out"/>
<feColorMatrix type="matrix" values="0 0 0 0 0 0 0 0 0 0 0 0 0 0 0 0 0 0 0.1 0"/>
<feBlend mode="normal" in2="BackgroundImageFix" result="effect1_dropShadow_142_107"/>
<feBlend mode="normal" in="SourceGraphic" in2="effect1_dropShadow_142_107" result="shape"/>
</filter>
<clipPath id="clip0_142_107">
<rect width="544" height="70" fill="white"/>
</clipPath>
</defs>
</svg>
