<svg width="544" height="76" viewBox="0 0 544 76" fill="none" xmlns="http://www.w3.org/2000/svg">
<g clip-path="url(#clip0_143_116)">
<path d="M329.613 47.3516C333.305 47.3711 335.961 49.168 335.961 51.9023C335.961 54.4902 333.656 56.209 330.355 56.4141V60.0664H337.602V61.3555H321.703V60.0664H328.852V56.4141C325.561 56.1992 323.266 54.4805 323.266 51.9023C323.266 49.168 325.922 47.3711 329.613 47.3516ZM329.613 48.6211C326.801 48.6211 324.75 49.9492 324.75 51.9023C324.75 53.9141 326.801 55.2031 329.613 55.2227C332.426 55.2031 334.477 53.9141 334.477 51.9023C334.477 49.9492 332.426 48.6211 329.613 48.6211ZM353.891 48.2109V49.4805H339.809V48.2109H346.137V46.1211H347.641V48.2109H353.891ZM354.887 57.4688V58.7383H347.641V63.6211H346.137V58.7383H338.988V57.4688H354.887ZM346.898 50.4766C350.434 50.4766 352.562 51.5117 352.562 53.3867C352.562 55.2227 350.434 56.2578 346.898 56.2773C343.344 56.2578 341.215 55.2227 341.234 53.3867C341.215 51.5117 343.344 50.4766 346.898 50.4766ZM346.898 51.6484C344.301 51.6484 342.797 52.293 342.816 53.3867C342.797 54.4609 344.301 55.0859 346.898 55.0859C349.457 55.0859 350.961 54.4609 350.98 53.3867C350.961 52.293 349.457 51.6484 346.898 51.6484ZM366.801 62.1953C363.988 62.1953 361.977 60.6914 361.879 58.4453H363.656C363.754 59.793 365.102 60.6328 366.781 60.6328C368.637 60.6328 370.004 59.6172 370.004 58.1523C370.004 56.6094 368.773 55.5156 366.566 55.5156H365.414V53.9727H366.566C368.285 53.9727 369.477 53.0156 369.477 51.5508C369.477 50.1445 368.441 49.1875 366.84 49.1875C365.336 49.1875 363.949 50.0273 363.871 51.4141H362.172C362.27 49.168 364.34 47.6641 366.859 47.6641C369.555 47.6641 371.195 49.4219 371.176 51.4531C371.195 53.0547 370.258 54.2461 368.773 54.6562V54.7539C370.609 55.0469 371.742 56.3555 371.723 58.1523C371.742 60.4766 369.613 62.1953 366.801 62.1953ZM375.473 60.125C374.789 60.125 374.203 59.5586 374.223 58.8555C374.203 58.1719 374.789 57.6055 375.473 57.6055C376.156 57.6055 376.723 58.1719 376.723 58.8555C376.723 59.5586 376.156 60.125 375.473 60.125ZM375.473 52.2734C374.789 52.2734 374.203 51.707 374.223 51.0039C374.203 50.3203 374.789 49.7539 375.473 49.7539C376.156 49.7539 376.723 50.3203 376.723 51.0039C376.723 51.707 376.156 52.2734 375.473 52.2734ZM383.969 62.1953C380.824 62.1953 379.027 59.5586 379.027 54.9297C379.027 50.3398 380.863 47.6641 383.969 47.6641C387.074 47.6641 388.91 50.3398 388.91 54.9297C388.91 59.5586 387.094 62.1953 383.969 62.1953ZM383.969 60.6328C386 60.6328 387.191 58.582 387.191 54.9297C387.191 51.2773 386 49.1875 383.969 49.1875C381.938 49.1875 380.727 51.2773 380.727 54.9297C380.727 58.582 381.918 60.6328 383.969 60.6328ZM395.961 47.6641C398.402 47.6836 401.098 49.1484 401.098 54.3633C401.098 59.3828 399.047 62.1953 395.727 62.1953C393.246 62.1953 391.488 60.6719 391.137 58.4258H392.875C393.188 59.6953 394.145 60.6328 395.727 60.6328C398.031 60.6328 399.438 58.6406 399.457 55.2031H399.262C398.441 56.375 397.152 57.0781 395.648 57.0781C393.109 57.0781 391.02 55.1445 391.02 52.4102C391.02 49.7734 392.953 47.6445 395.961 47.6641ZM395.961 49.207C394.105 49.207 392.719 50.6523 392.738 52.3906C392.738 54.1484 394.047 55.5352 395.902 55.5352C397.738 55.5352 399.184 54.0117 399.184 52.3516C399.184 50.7305 397.836 49.207 395.961 49.207Z" fill="black" fill-opacity="0.82"/>
<g filter="url(#filter0_d_143_116)">
<rect x="88" y="6" width="225" height="55" rx="6" fill="white"/>
</g>
<path d="M117.688 26.0645V27.6143C117.688 29.2876 117.688 31.3203 117.172 34.0381H120.092V35.5205H101.809V34.0381H115.397C115.937 31.2754 115.937 29.3213 115.937 27.6143V27.502H104.122V26.0645H117.688ZM118.295 42.8877V44.3701H104.234V37.7666H105.986V42.8877H118.295ZM138.779 24.8516V44.8193H137.072V24.8516H138.779ZM134.691 25.3457V43.7861H133.007V33.9707H128.649V32.4883H133.007V25.3457H134.691ZM129.997 27.3223V28.7822H124.18V38.5303C127.055 38.519 128.874 38.3955 131.03 37.9238L131.21 39.4287C128.896 39.9004 126.942 39.9902 123.73 40.0127H122.473V27.3223H129.997ZM163.868 24.8516V35.2734H162.116V30.7812H157.399V34.4648H148.348V25.7949H150.1V28.6475H155.67V25.7949H157.399V29.2988H162.116V24.8516H163.868ZM163.868 36.2393V40.9561H152.728V43.1348H164.632V44.5498H150.976V39.6084H162.116V37.6543H150.931V36.2393H163.868ZM150.1 33.0273H155.67V30.0625H150.1V33.0273ZM184.061 24.8516V44.8193H182.286V33.6562H178.737V32.1064H182.286V24.8516H184.061ZM171.729 31.208C171.707 33.207 172.1 36.1606 173.729 38.1484C175.312 36.2168 175.66 33.3193 175.66 31.208V26.6484H177.367V31.208C177.345 33.8135 178.019 37.25 180.512 39.002L179.389 40.2822C177.873 39.1929 176.997 37.4185 176.536 35.4756C176.076 37.4634 175.233 39.3276 173.706 40.4395C172.167 39.3164 171.314 37.4297 170.876 35.4756C170.393 37.3848 169.54 39.1479 168.113 40.2373L166.923 39.002C169.349 37.2051 170.045 33.7236 170.067 31.208V26.6484H171.729V31.208ZM208.476 24.8516V29.793H211.485V31.2305H208.476V36.4189H206.724V24.8516H208.476ZM208.476 37.3623V44.5498H195.875V37.3623H208.476ZM197.604 38.7998V43.1123H206.724V38.7998H197.604ZM198.48 26.0645C201.513 26.042 203.714 27.9736 203.736 30.7588C203.714 33.5439 201.513 35.4307 198.48 35.4531C195.448 35.4307 193.225 33.5439 193.247 30.7588C193.225 27.9736 195.448 26.042 198.48 26.0645ZM198.48 27.5693C196.459 27.5469 194.954 28.8721 194.977 30.7588C194.954 32.6455 196.459 33.9482 198.48 33.9707C200.524 33.9482 202.007 32.6455 202.007 30.7588C202.007 28.8721 200.524 27.5469 198.48 27.5693ZM231.026 40.9111V42.3711H212.743V40.9111H217.842V36.1494H214.405V34.6895H217.527V28.1758H214.36V26.7158H229.274V28.1758H226.107V34.6895H229.229V36.1494H225.793V40.9111H231.026ZM219.279 34.6895H224.378V28.1758H219.279V34.6895ZM219.616 40.9111H224.041V36.1494H219.616V40.9111ZM254.004 24.8516V29.3662H257.014V30.8486H254.004V35.0938H252.252V24.8516H254.004ZM248.479 26.1768V34.3076H239.247V26.1768H248.479ZM240.977 27.6143V32.8926H246.771V27.6143H240.977ZM242.234 36.8906V42.8203C243.391 42.7866 244.93 42.6182 246.345 42.1465L246.614 43.5615C244.66 44.2129 242.773 44.2803 241.471 44.2803H240.527V36.8906H242.234ZM256.003 37.0928V38.4404H245.918V37.0928H250.118V35.3184H251.848V37.0928H256.003ZM250.949 39.1592C253.128 39.1816 254.678 40.2373 254.7 41.9668C254.678 43.6963 253.128 44.7744 250.949 44.7744C248.748 44.7744 247.221 43.6963 247.243 41.9668C247.221 40.2373 248.748 39.1816 250.949 39.1592ZM250.949 40.417C249.714 40.417 248.815 41.0234 248.815 41.9668C248.815 42.9102 249.714 43.5391 250.949 43.5166C252.207 43.5391 253.083 42.9102 253.083 41.9668C253.083 41.0234 252.207 40.417 250.949 40.417ZM268.626 26.5361V27.9961H261.169V35.0488C264.751 35.0488 267.065 34.9253 269.749 34.3975L269.974 35.8574C267.121 36.3516 264.695 36.5088 260.944 36.5088H259.439V26.5361H268.626ZM274.825 24.874V39.4512H273.051V31.8594H267.323V30.4219H273.051V24.874H274.825ZM275.364 43.0674V44.5049H261.955V38.3506H263.729V43.0674H275.364ZM295.242 24.8516V44.8193H293.535V24.8516H295.242ZM291.154 25.3457V43.7861H289.47V33.9707H285.112V32.4883H289.47V25.3457H291.154ZM286.46 27.3223V28.7822H280.643V38.5303C283.518 38.519 285.337 38.3955 287.493 37.9238L287.673 39.4287C285.359 39.9004 283.405 39.9902 280.193 40.0127H278.936V27.3223H286.46Z" fill="black"/>
</g>
<defs>
<filter id="filter0_d_143_116" x="85" y="6" width="231" height="62" filterUnits="userSpaceOnUse" color-interpolation-filters="sRGB">
<feFlood flood-opacity="0" result="BackgroundImageFix"/>
<feColorMatrix in="SourceAlpha" type="matrix" values="0 0 0 0 0 0 0 0 0 0 0 0 0 0 0 0 0 0 127 0" result="hardAlpha"/>
<feOffset dy="4"/>
<feGaussianBlur stdDeviation="1.5"/>
<feComposite in2="hardAlpha" operator="out"/>
<feColorMatrix type="matrix" values="0 0 0 0 0 0 0 0 0 0 0 0 0 0 0 0 0 0 0.1 0"/>
<feBlend mode="normal" in2="BackgroundImageFix" result="effect1_dropShadow_143_116"/>
<feBlend mode="normal" in="SourceGraphic" in2="effect1_dropShadow_143_116" result="shape"/>
</filter>
<clipPath id="clip0_143_116">
<rect width="544" height="76" fill="white"/>
</clipPath>
</defs>
</svg>
